# xmcd CD database file
#
# Track frame offsets:
#	150
#	43349
#	72328
#	111946
#	140218
#	176732
#	209000
#
# Disc length: 3463 seconds
#
# Revision: 1
# Processed by: cddbd v1.5.2PL0 Copyright (c) Steve Scherf et al.
# Submitted via: CDex 1.70beta2
#
DISCID=770d8507
DTITLE=Joe Jackson - Joe`s choice - CD 2
DYEAR=2011
DGENRE=Jazz
TTITLE0=Moanin
TTITLE1=Lester left town
TTITLE2=Dat dere
TTITLE3=A little busy
TTITLE4=Sleeping dancer sleep on
TTITLE5=Ping pong
TTITLE6=A night in Tunesia
EXTD=YEAR: 2011
EXTT0=
EXTT1=
EXTT2=
EXTT3=
EXTT4=
EXTT5=
EXTT6=
PLAYORDER=
